<svg width="54" height="54" viewBox="0 0 54 54" fill="none" xmlns="http://www.w3.org/2000/svg">
<rect width="54" height="54" rx="27" fill="white"/>
<path d="M41.9597 38.5313C40.0317 35.1474 37.0211 32.5108 33.4125 31.0458C35.207 29.6999 36.5325 27.8235 37.2014 25.6825C37.8702 23.5414 37.8484 21.2441 37.1391 19.1161C36.4297 16.9881 35.0688 15.1372 33.2491 13.8256C31.4294 12.5141 29.2431 11.8083 27 11.8083C24.7569 11.8083 22.5706 12.5141 20.7509 13.8256C18.9312 15.1372 17.5703 16.9881 16.861 19.1161C16.1516 21.2441 16.1298 23.5414 16.7986 25.6825C17.4675 27.8235 18.793 29.6999 20.5875 31.0458C16.979 32.5108 13.9683 35.1474 12.0403 38.5313C11.9208 38.7233 11.8412 38.9375 11.8062 39.161C11.7711 39.3845 11.7814 39.6127 11.8363 39.8322C11.8912 40.0516 11.9897 40.2578 12.1259 40.4384C12.2621 40.619 12.4332 40.7704 12.6291 40.8836C12.825 40.9968 13.0416 41.0694 13.2661 41.0972C13.4906 41.1249 13.7184 41.1073 13.936 41.0453C14.1535 40.9832 14.3564 40.8781 14.5325 40.7361C14.7086 40.5941 14.8543 40.4182 14.9611 40.2188C17.5092 35.8144 22.0092 33.1875 27 33.1875C31.9908 33.1875 36.4908 35.8158 39.0389 40.2188C39.2703 40.5907 39.6372 40.8582 40.0622 40.9646C40.4871 41.0709 40.9368 41.0079 41.3161 40.7887C41.6954 40.5696 41.9746 40.2115 42.0947 39.7902C42.2148 39.369 42.1664 38.9175 41.9597 38.5313ZM19.6875 22.5C19.6875 21.0537 20.1164 19.6399 20.9199 18.4374C21.7234 17.2349 22.8654 16.2976 24.2016 15.7441C25.5378 15.1907 27.0081 15.0459 28.4266 15.328C29.8451 15.6102 31.1481 16.3066 32.1707 17.3293C33.1934 18.352 33.8898 19.6549 34.172 21.0734C34.4542 22.4919 34.3093 23.9622 33.7559 25.2984C33.2024 26.6346 32.2651 27.7766 31.0626 28.5801C29.8601 29.3836 28.4463 29.8125 27 29.8125C25.0613 29.8103 23.2026 29.0391 21.8318 27.6683C20.4609 26.2974 19.6897 24.4387 19.6875 22.5Z" fill="#94A3B8"/>
</svg>
